HIERARCHY
ROOT hip
{
  OFFSET 0 0 0
  CHANNELS 6 Xposition Yposition Zposition Zrotation Yrotation Xrotation
  JOINT abdomen
  {
    OFFSET 0 20.6881 -0.73152
    CHANNELS 3 Zrotation Xrotation Yrotation
    JOINT chest
    {
      OFFSET 0 11.7043 -0.48768
      CHANNELS 3 Zrotation Xrotation Yrotation
      JOINT neck
      {
        OFFSET 0 22.1894 -2.19456
        CHANNELS 3 Zrotation Xrotation Yrotation
        JOINT head
        {
          OFFSET -0.24384 7.07133 1.2192
          CHANNELS 3 Zrotation Xrotation Yrotation
          JOINT leftEye
          {
            OFFSET 4.14528 8.04674 8.04672
            CHANNELS 3 Zrotation Xrotation Yrotation
            End Site
            {
              OFFSET 1 0 0
            }
          }
          JOINT rightEye
          {
            OFFSET -3.6576 8.04674 8.04672
            CHANNELS 3 Zrotation Xrotation Yrotation
            End Site
            {
              OFFSET 1 0 0
            }
          }
        }
      }
      JOINT rCollar
      {
        OFFSET -2.68224 19.2634 -4.8768
        CHANNELS 3 Zrotation Xrotation Yrotation
        JOINT rShldr
        {
          OFFSET -8.77824 -1.95073 1.46304
          CHANNELS 3 Zrotation Xrotation Yrotation
          JOINT rForeArm
          {
            OFFSET -28.1742 -1.7115 0.48768
            CHANNELS 3 Zrotation Xrotation Yrotation
            JOINT rHand
            {
              OFFSET -22.5879 0.773209 7.07136
              CHANNELS 3 Zrotation Xrotation Yrotation
              JOINT rThumb1
              {
                OFFSET -1.2192 -0.487915 3.41376
                CHANNELS 3 Zrotation Xrotation Yrotation
                JOINT rThumb2
                {
                  OFFSET -3.37035 -0.52449 3.41376
                  CHANNELS 3 Zrotation Xrotation Yrotation
                  End Site
                  {
                    OFFSET -1.78271 -1.18214 1.43049
                  }
                }
              }
              JOINT rIndex1
              {
                OFFSET -7.75947 0.938293 5.60832
                CHANNELS 3 Zrotation Xrotation Yrotation
                JOINT rIndex2
                {
                  OFFSET -2.54057 -0.884171 1.56538
                  CHANNELS 3 Zrotation Xrotation Yrotation
                  End Site
                  {
                    OFFSET -1.62519 -0.234802 1.16502
                  }
                }
              }
              JOINT rMid1
              {
                OFFSET -8.24714 1.18213 3.41376
                CHANNELS 3 Zrotation Xrotation Yrotation
                JOINT rMid2
                {
                  OFFSET -3.10165 -0.590103 1.0647
                  CHANNELS 3 Zrotation Xrotation Yrotation
                  End Site
                  {
                    OFFSET -2.48547 -0.328903 0.83742
                  }
                }
              }
              JOINT rRing1
              {
                OFFSET -8.82822 0.546677 1.51678
                CHANNELS 3 Zrotation Xrotation Yrotation
                JOINT rRing2
                {
                  OFFSET -2.60934 -0.819778 -0.0198488
                  CHANNELS 3 Zrotation Xrotation Yrotation
                  End Site
                  {
                    OFFSET -2.33842 -0.294052 0.168128
                  }
                }
              }
              JOINT rPinky1
              {
                OFFSET -8.27202 -0.0477905 -0.4584
                CHANNELS 3 Zrotation Xrotation Yrotation
                JOINT rPinky2
                {
                  OFFSET -1.82734 -0.647385 -0.700984
                  CHANNELS 3 Zrotation Xrotation Yrotation
                  End Site
                  {
                    OFFSET -1.69225 -0.51767 -0.607171
                  }
                }
              }
            }
          }
        }
      }
      JOINT lCollar
      {
        OFFSET 2.68224 19.2634 -4.8768
        CHANNELS 3 Zrotation Xrotation Yrotation
        JOINT lShldr
        {
          OFFSET 8.77824 -1.95073 1.46304
          CHANNELS 3 Zrotation Xrotation Yrotation
          JOINT lForeArm
          {
            OFFSET 28.1742 -1.7115 0.48768
            CHANNELS 3 Zrotation Xrotation Yrotation
            JOINT lHand
            {
              OFFSET 22.5879 0.773209 7.07136
              CHANNELS 3 Zrotation Xrotation Yrotation
              JOINT lThumb1
              {
                OFFSET 1.2192 -0.487915 3.41376
                CHANNELS 3 Zrotation Xrotation Yrotation
                JOINT lThumb2
                {
                  OFFSET 3.37035 -0.52449 3.41376
                  CHANNELS 3 Zrotation Xrotation Yrotation
                  End Site
                  {
                    OFFSET 1.78271 -1.18214 1.43049
                  }
                }
              }
              JOINT lIndex1
              {
                OFFSET 7.75947 0.938293 5.60832
                CHANNELS 3 Zrotation Xrotation Yrotation
                JOINT lIndex2
                {
                  OFFSET 2.54057 -0.884171 1.56538
                  CHANNELS 3 Zrotation Xrotation Yrotation
                  End Site
                  {
                    OFFSET 1.62519 -0.234802 1.16502
                  }
                }
              }
              JOINT lMid1
              {
                OFFSET 8.24714 1.18213 3.41376
                CHANNELS 3 Zrotation Xrotation Yrotation
                JOINT lMid2
                {
                  OFFSET 3.10165 -0.590103 1.0647
                  CHANNELS 3 Zrotation Xrotation Yrotation
                  End Site
                  {
                    OFFSET 2.48547 -0.328903 0.83742
                  }
                }
              }
              JOINT lRing1
              {
                OFFSET 8.82822 0.546677 1.51678
                CHANNELS 3 Zrotation Xrotation Yrotation
                JOINT lRing2
                {
                  OFFSET 2.60934 -0.819778 -0.0198488
                  CHANNELS 3 Zrotation Xrotation Yrotation
                  End Site
                  {
                    OFFSET 2.33842 -0.294052 0.168128
                  }
                }
              }
              JOINT lPinky1
              {
                OFFSET 8.27202 -0.0477905 -0.4584
                CHANNELS 3 Zrotation Xrotation Yrotation
                JOINT lPinky2
                {
                  OFFSET 1.82734 -0.647385 -0.700984
                  CHANNELS 3 Zrotation Xrotation Yrotation
                  End Site
                  {
                    OFFSET 1.69225 -0.51767 -0.607171
                  }
                }
              }
            }
          }
        }
      }
    }
  }
  JOINT rButtock
  {
    OFFSET -8.77824 4.35084 1.2192
    CHANNELS 3 Zrotation Xrotation Yrotation
    JOINT rThigh
    {
      OFFSET 0 -1.70687 -2.19456
      CHANNELS 3 Zrotation Xrotation Yrotation
      JOINT rShin
      {
        OFFSET 0 -36.8199 0.73152
        CHANNELS 3 Zrotation Xrotation Yrotation
        JOINT rFoot
        {
          OFFSET 0.73152 -45.1104 -5.12064
          CHANNELS 3 Zrotation Xrotation Yrotation
          End Site
          {
            OFFSET -1.1221 -3.69964 12.103
          }
        }
      }
    }
  }
  JOINT lButtock
  {
    OFFSET 8.77824 4.35084 1.2192
    CHANNELS 3 Zrotation Xrotation Yrotation
    JOINT lThigh
    {
      OFFSET 0 -1.70687 -2.19456
      CHANNELS 3 Zrotation Xrotation Yrotation
      JOINT lShin
      {
        OFFSET 0 -36.8199 0.73152
        CHANNELS 3 Zrotation Xrotation Yrotation
        JOINT lFoot
        {
          OFFSET -0.73152 -45.1104 -5.12064
          CHANNELS 3 Zrotation Xrotation Yrotation
          End Site
          {
            OFFSET 1.1221 -3.69964 12.103
          }
        }
      }
    }
  }
}
MOTION
Frames:	5
Frame Time:	0.03333
-31.4133 69.7273 -40.2629 177.886112 20.55935 -174.067864 6.330091 -1.245658 90.948491 -11.201973 4.558763 -68.763941 -2.163059 9.118466 -82.018079 8.433506 6.964797 77.762011 0.278659 0.019632 8.059625 5.235678 -0.450901 -9.83766 -152.36192 -23.581862 172.556876 -118.614893 -49.681202 -100.799224 -21.934988 -68.941708 78.056587 -4.183709 7.383568 -1.148944 -0.539493 2.932337 7.238621 -23.582294 25.414755 -10.328956 -81.370869 37.595569 70.881542 -139.183192 4.688121 154.991517 -133.038958 -44.606874 172.060036 -139.578439 1.676719 165.18324 31.16821 -24.22045 15.196082 150.463221 30.632251 -170.503948 36.154409 16.965255 -17.054535 -10.260804 48.54327 24.958786 174.709302 -47.931009 -162.108764 -7.434003 37.297069 -23.787604 -165.438486 -60.626079 -96.538784 -169.22968 -9.466845 -134.308382 177.506732 -25.156566 -84.555195 61.276865 19.965188 -26.564647 -29.990427 -47.938962 -28.458623 -165.912588 -4.239209 -137.037547 -116.332693 -60.838858 -101.531588 39.936168 67.092046 -6.737889 25.129101 -61.69123 24.196353 99.730744 51.02026 -143.614566 141.603098 40.944665 159.745209 114.442532 -14.110545 130.177068 66.844981 43.302251 37.789181 -108.327689 13.646697 -0.0 68.055037 25.067781 -173.643586 19.956412 -52.564618 109.686492 -7.646885 0.368691 -1.908428 14.145898 -32.526931 7.957292 -12.007784 52.733796 71.705944 59.844416 -56.070541 -25.451031
-32.486399999999996 69.4465 -41.3337 177.72422 19.938629 -174.240236 6.155672 -0.756547 83.020259 -11.803022 3.239126 -61.506713 0.625989 13.932077 -111.768152 10.20695 9.025028 107.555178 3.798324 0.383027 11.512466 4.603149 -0.480289 -11.906982 1.963127 12.578674 -3.479301 -105.511811 11.772507 132.919912 51.10486 12.835454 -169.797769 -166.288693 39.522063 138.715888 -90.823701 32.342298 54.64629 108.092656 -74.835667 19.27208 -149.178791 -19.774267 116.774199 -11.502474 44.688398 49.606652 -116.784508 -65.0166 -168.2834 -132.544414 -66.129571 165.476322 24.130557 1.148924 19.921246 6.659091 46.034895 -44.643027 94.092445 66.826524 -35.851662 -147.359923 -9.533391 -127.749949 9.112019 -0.730657 -5.275384 7.814298 12.918163 -11.361099 -165.861138 46.292738 -125.096445 -172.082177 -1.60784 -135.209133 170.554527 -20.901785 -86.548951 152.055546 -9.925476 -101.355678 -25.762969 -45.013758 -25.861433 67.47756 74.449436 -13.949981 164.599504 17.760762 -120.488506 -3.385884 -14.364986 -25.565531 12.916444 -2.1468 -2.800918 0.750247 11.460658 -38.784057 85.789771 -56.166832 85.882711 144.673181 -19.803373 150.246046 -5.384752 9.764636 7.774528 -20.954901 -37.978824 -120.844333 -61.80549 14.433099 101.63016 -82.01876 10.961999 9.066102 5.076116 -0.563541 7.452138 -5.493581 -31.140011 -2.940882 -16.454154 59.035656 137.810798 -41.349631 -35.21522 -128.194254
-33.672000000000004 68.9789 -42.2566 177.137972 20.404221 -172.900998 3.773037 -4.091668 82.334255 -11.098936 2.272481 -60.916555 2.139595 9.041116 -83.498757 5.478709 3.794335 80.20786 4.938867 0.21467 4.974559 2.524844 -0.29298 -13.235786 -152.629795 6.423316 167.515926 -38.475342 -12.966669 -16.666717 59.311284 -8.163201 -164.19757 -150.100122 58.958284 126.400884 -0.66691 7.251953 1.179269 -50.49055 38.445397 23.986755 -43.551032 36.94631 41.333917 -173.102243 50.367832 155.650611 18.187823 6.65212 -22.914341 -9.348374 7.691748 38.432058 23.455651 0.736115 14.358805 152.841158 32.498198 -161.222181 14.163853 -2.06191 -23.389474 -151.73668 9.376673 -152.151686 10.849827 7.227772 -9.362362 148.002107 65.001633 -146.77982 91.219903 -42.806101 92.108692 -29.773693 -46.165623 -6.509924 -179.226433 -25.461019 -82.091503 35.285747 -6.332523 -5.982627 -14.928469 -44.870686 -26.197492 39.534497 79.920144 9.062559 46.847571 29.001703 -28.286697 65.70363 67.692797 -84.125898 15.949423 -1.701968 0.419939 -52.742743 -32.182748 -51.124759 148.403656 74.204257 163.359597 -37.033614 40.603692 20.36315 -3.768933 9.633154 5.421236 -23.444496 -41.457758 -0.0 54.763833 36.964785 -57.500575 153.924352 -29.487067 17.047434 -0.394208 -3.404247 0.482553 3.878438 -29.527712 -0.0 -18.500049 50.768677 71.103373 -147.419577 0.917785 23.63741
-34.7288 68.85860000000001 -43.1239 177.29241 20.233676 -173.309677 2.933312 -4.112434 79.720541 -11.049884 2.163407 -59.928159 4.85154 3.69917 -53.707422 1.202799 2.70503 52.154703 7.88506 0.729368 10.553183 0.682319 -0.045586 -7.644487 -25.605454 -75.318526 -49.120571 38.650691 -7.782516 -25.234007 132.346195 14.811325 -36.555586 -47.669383 64.36221 30.795386 56.365838 -45.266637 9.496277 -162.800368 -2.231165 105.215508 35.448045 -38.690622 -2.655191 109.44461 -35.430392 89.239191 -19.320622 82.667243 26.125846 -158.770899 46.604613 107.571452 26.998019 -0.880161 6.061715 156.718763 24.839581 -175.313602 6.483621 12.379334 -19.671537 3.272832 -12.044756 2.264612 164.010895 -6.052295 -154.991457 155.944213 -14.169642 -173.043905 16.22129 -28.952796 -25.335465 -9.146543 -3.625168 10.807422 73.159372 33.152262 -47.940226 30.216048 0.61757 -25.711212 147.389571 17.673572 -75.708173 -30.004267 33.185252 -27.905851 -4.186035 -40.784798 -17.53711 174.056376 56.155356 -171.864921 165.148182 4.374122 -179.313337 91.178613 -30.502148 98.806763 14.532668 -31.233684 12.110407 8.508456 -15.338424 -12.067971 -0.647085 9.046583 4.108454 -24.476712 -45.956799 -180.0 -71.022378 -41.569676 -70.343674 -75.05655 32.757456 -171.024116 -4.592995 -4.870364 -2.207466 11.268919 -28.049642 -140.909141 -11.9802 -54.419007 98.646575 -179.621826 -71.118116 -90.661185
-35.6122 68.6125 -43.9087 177.532203 20.407284 -173.554211 2.037233 -6.170101 115.378163 -5.089243 7.458889 -97.255402 5.924907 8.357114 -83.985828 4.250516 2.979348 86.004207 6.893807 0.719838 11.908102 -1.056993 0.017766 -1.925841 2.287715 11.386136 -2.358651 109.862765 -53.463704 65.046952 -122.532612 78.798324 -130.935969 -3.123737 -5.321439 -1.112078 -164.381024 -7.642059 98.090986 -32.011718 -11.923495 26.698778 -36.65217 40.028433 42.011097 -173.669401 -8.293591 162.219209 14.141631 11.339326 -18.411791 57.168003 -32.763531 37.683752 -120.992567 0.112841 -176.580588 -112.467004 -24.907093 -178.14304 -168.414756 26.085958 -126.38273 -156.538616 17.751632 -144.146692 168.252186 -31.249162 -160.419522 -33.539622 -60.787023 -13.926783 -1.339808 1.362278 71.550923 -162.821355 -12.219512 -129.108466 -19.445297 -6.260385 -5.025651 -128.733044 -85.477924 -70.817875 -102.402525 -46.197882 -84.550881 24.208524 -24.942013 -12.984158 20.214989 -9.863563 -16.275264 100.087721 -67.303046 148.147964 24.303927 5.49523 -3.47266 15.392535 14.702726 -55.630465 4.779658 -1.171245 -2.26462 41.610469 -57.39168 23.217271 141.753277 62.920436 21.035299 -170.684114 25.632391 -20.766818 20.48197 65.257802 -113.605362 144.71595 -73.021381 -118.613553 -150.713024 79.880892 -25.312171 179.62784 48.182626 -175.269897 9.395568 -58.793904 -85.33683 -166.445113 -5.324241 65.335594
